<svg width="40" height="40" viewBox="0 0 40 40" fill="none" xmlns="http://www.w3.org/2000/svg">
<g clip-path="url(#clip0_815_1782)">
<path fill-rule="evenodd" clip-rule="evenodd" d="M40 20C40 31.0457 31.0457 40 20 40C8.9543 40 0 31.0457 0 20C0 8.9543 8.9543 0 20 0C31.0457 0 40 8.9543 40 20ZM32.6936 26.3719C33.6574 24.4557 34.2 22.2912 34.2 20C34.2 12.1576 27.8424 5.8 20 5.8C12.1576 5.8 5.8 12.1576 5.8 20C5.8 27.8424 12.1576 34.2 20 34.2C22.2912 34.2 24.4557 33.6574 26.3719 32.6936C25.7633 31.9261 25.3999 30.9554 25.3999 29.8999C25.3999 27.4146 27.4146 25.3999 29.8999 25.3999C30.9554 25.3999 31.9261 25.7633 32.6936 26.3719ZM33.297 26.9486C34.3848 24.8712 35 22.5075 35 20C35 11.7157 28.2843 5 20 5C11.7157 5 5 11.7157 5 20C5 28.2843 11.7157 35 20 35C22.5075 35 24.8712 34.3848 26.9486 33.297C27.7386 33.984 28.7707 34.3999 29.8999 34.3999C32.3852 34.3999 34.3999 32.3852 34.3999 29.8999C34.3999 28.7707 33.984 27.7386 33.297 26.9486ZM13.1131 15.0321C12.9935 14.8361 12.9955 14.6015 13.1182 14.3861C13.2433 14.1664 13.4548 14.0378 13.6839 14.0378H18.9873V25.2059L13.1257 15.0534L13.1131 15.0321ZM21.0078 25.1868L26.8689 14.9709C26.8734 14.9629 26.8781 14.955 26.8829 14.9472C27.006 14.7455 26.9938 14.539 26.8875 14.3603C26.7759 14.1726 26.5694 14.0378 26.3121 14.0378H21.0078V25.1868ZM13.6839 12C11.668 12 10.2934 14.2795 11.3852 16.0883L19.125 29.494C19.3062 29.8078 19.6393 30.0007 19.9994 30.0002C20.3595 29.9997 20.6921 29.8059 20.8724 29.4916L28.6116 16.0022C29.7289 14.1499 28.2748 12 26.3121 12H13.6839ZM32.3 28.2V27.5L31.509 27.5L30.7 27.5H29H28.2H27.5V28.2H28.2V32.3H29V28.2H30.7V31.2C30.7 31.85 31.0056 32.3 31.6934 32.3C31.8361 32.3 31.958 32.288 32.0591 32.264C32.1602 32.2419 32.2405 32.2219 32.3 32.2039V31.45C32.3 31.45 32.2118 31.475 32.1424 31.489C32.075 31.5031 32.0086 31.5101 31.9432 31.5101C31.6 31.5101 31.509 31.35 31.509 31.0987V28.2H32.3Z" fill="#242F3D"/>
</g>
<defs>
<clipPath id="clip0_815_1782">
<rect width="40" height="40" fill="white"/>
</clipPath>
</defs>
</svg>
